<mxfile host="app.diagrams.net" agent="Mozilla/5.0 (Macintosh; Intel Mac OS X 10_15_7) AppleWebKit/537.36 (KHTML, like Gecko) Chrome/133.0.0.0 Safari/537.36" version="26.0.16">
  <diagram name="第 1 页" id="HPxnn8EYBrVeJLNYMFsp">
    <mxGraphModel dx="454" dy="269" grid="1" gridSize="10" guides="1" tooltips="1" connect="1" arrows="1" fold="1" page="1" pageScale="1" pageWidth="827" pageHeight="1169" math="0" shadow="0">
      <root>
        <mxCell id="0" />
        <mxCell id="1" parent="0" />
        <mxCell id="kAtiKYI1GSR-wgLTTllL-18" style="edgeStyle=orthogonalEdgeStyle;rounded=0;orthogonalLoop=1;jettySize=auto;html=1;entryX=0.5;entryY=0;entryDx=0;entryDy=0;curved=1;endArrow=classicThin;endFill=1;fontFamily=Times New Roman;" edge="1" parent="1" source="kAtiKYI1GSR-wgLTTllL-1" target="kAtiKYI1GSR-wgLTTllL-17">
          <mxGeometry relative="1" as="geometry">
            <Array as="points">
              <mxPoint x="92" y="202" />
              <mxPoint x="315" y="202" />
            </Array>
          </mxGeometry>
        </mxCell>
        <mxCell id="kAtiKYI1GSR-wgLTTllL-1" value="" style="html=1;verticalLabelPosition=bottom;align=center;labelBackgroundColor=#ffffff;verticalAlign=top;strokeWidth=2;shadow=0;dashed=0;shape=mxgraph.ios7.icons.data;fillColor=#f5f5f5;fontColor=#333333;strokeColor=#666666;fontFamily=Times New Roman;" vertex="1" parent="1">
          <mxGeometry x="80" y="250.45" width="24" height="29.099999999999998" as="geometry" />
        </mxCell>
        <mxCell id="kAtiKYI1GSR-wgLTTllL-2" value="" style="html=1;verticalLabelPosition=bottom;align=center;labelBackgroundColor=#ffffff;verticalAlign=top;strokeWidth=2;strokeColor=#0080F0;shadow=0;dashed=0;shape=mxgraph.ios7.icons.data;fontFamily=Times New Roman;" vertex="1" parent="1">
          <mxGeometry x="490" y="250" width="24" height="29.099999999999998" as="geometry" />
        </mxCell>
        <mxCell id="kAtiKYI1GSR-wgLTTllL-3" value="" style="points=[[0.35,0,0],[0.98,0.51,0],[1,0.71,0],[0.67,1,0],[0,0.795,0],[0,0.65,0]];verticalLabelPosition=bottom;sketch=0;html=1;verticalAlign=top;aspect=fixed;align=center;pointerEvents=1;shape=mxgraph.cisco19.user;fillColor=#005073;strokeColor=none;fontFamily=Times New Roman;" vertex="1" parent="1">
          <mxGeometry x="364" y="240" width="50" height="50" as="geometry" />
        </mxCell>
        <mxCell id="kAtiKYI1GSR-wgLTTllL-11" value="Model" style="verticalAlign=top;align=left;spacingTop=8;spacingLeft=2;spacingRight=12;shape=cube;size=10;direction=south;fontStyle=4;html=1;whiteSpace=wrap;fillColor=#dae8fc;strokeColor=#6c8ebf;fontFamily=Times New Roman;" vertex="1" parent="1">
          <mxGeometry x="180" y="237.05" width="90" height="55" as="geometry" />
        </mxCell>
        <mxCell id="kAtiKYI1GSR-wgLTTllL-13" style="edgeStyle=orthogonalEdgeStyle;rounded=0;orthogonalLoop=1;jettySize=auto;html=1;entryX=0.519;entryY=1.019;entryDx=0;entryDy=0;entryPerimeter=0;fontFamily=Times New Roman;" edge="1" parent="1" source="kAtiKYI1GSR-wgLTTllL-1" target="kAtiKYI1GSR-wgLTTllL-11">
          <mxGeometry relative="1" as="geometry" />
        </mxCell>
        <mxCell id="kAtiKYI1GSR-wgLTTllL-14" style="edgeStyle=orthogonalEdgeStyle;rounded=0;orthogonalLoop=1;jettySize=auto;html=1;entryX=0.065;entryY=0.501;entryDx=0;entryDy=0;entryPerimeter=0;fontFamily=Times New Roman;" edge="1" parent="1" source="kAtiKYI1GSR-wgLTTllL-11" target="kAtiKYI1GSR-wgLTTllL-3">
          <mxGeometry relative="1" as="geometry" />
        </mxCell>
        <mxCell id="kAtiKYI1GSR-wgLTTllL-15" style="edgeStyle=orthogonalEdgeStyle;rounded=0;orthogonalLoop=1;jettySize=auto;html=1;entryX=0.016;entryY=0.499;entryDx=0;entryDy=0;entryPerimeter=0;fontFamily=Times New Roman;" edge="1" parent="1" source="kAtiKYI1GSR-wgLTTllL-3" target="kAtiKYI1GSR-wgLTTllL-2">
          <mxGeometry relative="1" as="geometry" />
        </mxCell>
        <mxCell id="kAtiKYI1GSR-wgLTTllL-17" value="Acquisition&lt;div&gt;function&lt;/div&gt;" style="rounded=0;whiteSpace=wrap;html=1;dashed=1;fontFamily=Times New Roman;" vertex="1" parent="1">
          <mxGeometry x="280" y="221.45" width="70" height="29" as="geometry" />
        </mxCell>
        <mxCell id="kAtiKYI1GSR-wgLTTllL-19" value="Unlabeled&lt;div&gt;data&lt;/div&gt;" style="text;html=1;align=center;verticalAlign=middle;whiteSpace=wrap;rounded=0;fontFamily=Times New Roman;" vertex="1" parent="1">
          <mxGeometry x="62" y="280" width="60" height="30" as="geometry" />
        </mxCell>
        <mxCell id="kAtiKYI1GSR-wgLTTllL-20" value="Labeled&lt;div&gt;data&lt;/div&gt;" style="text;html=1;align=center;verticalAlign=middle;whiteSpace=wrap;rounded=0;fontFamily=Times New Roman;" vertex="1" parent="1">
          <mxGeometry x="472" y="290" width="60" height="30" as="geometry" />
        </mxCell>
        <mxCell id="kAtiKYI1GSR-wgLTTllL-21" value="Expert" style="text;html=1;align=center;verticalAlign=middle;whiteSpace=wrap;rounded=0;fontFamily=Times New Roman;" vertex="1" parent="1">
          <mxGeometry x="354" y="290" width="60" height="30" as="geometry" />
        </mxCell>
        <mxCell id="kAtiKYI1GSR-wgLTTllL-22" value="Select" style="text;html=1;align=center;verticalAlign=middle;whiteSpace=wrap;rounded=0;fontFamily=Times New Roman;" vertex="1" parent="1">
          <mxGeometry x="285" y="260" width="60" height="30" as="geometry" />
        </mxCell>
        <mxCell id="kAtiKYI1GSR-wgLTTllL-23" value="Label" style="text;html=1;align=center;verticalAlign=middle;whiteSpace=wrap;rounded=0;fontFamily=Times New Roman;" vertex="1" parent="1">
          <mxGeometry x="418" y="259" width="60" height="30" as="geometry" />
        </mxCell>
        <mxCell id="kAtiKYI1GSR-wgLTTllL-24" value="Extract&lt;div&gt;feature&lt;/div&gt;" style="text;html=1;align=center;verticalAlign=middle;whiteSpace=wrap;rounded=0;fontFamily=Times New Roman;" vertex="1" parent="1">
          <mxGeometry x="109" y="235" width="60" height="30" as="geometry" />
        </mxCell>
      </root>
    </mxGraphModel>
  </diagram>
</mxfile>
